<?xml version="1.0" encoding="UTF-8"?><svg id="Layer_1" xmlns="http://www.w3.org/2000/svg" viewBox="0 0 1452.15 228.29"><defs><style>.cls-1{fill:#003a5d;}.cls-2{fill:#0066a6;}.cls-3{fill:#1ca6df;}.cls-4{fill:#063c5c;}</style></defs><path class="cls-1" d="m468.64,28.75c-2.34-2.52-4.61-4.21-6.81-5.05-2.19-.84-4.4-1.26-6.63-1.26-3.31,0-6.3.59-8.97,1.76-2.67,1.17-4.97,2.79-6.9,4.87-1.92,2.07-3.41,4.49-4.46,7.26-1.05,2.76-1.58,5.74-1.58,8.92,0,3.43.53,6.58,1.58,9.46,1.05,2.88,2.54,5.38,4.46,7.48,1.92,2.1,4.22,3.76,6.9,4.96,2.67,1.2,5.66,1.8,8.97,1.8,2.58,0,5.09-.62,7.53-1.85,2.43-1.23,4.7-3.2,6.81-5.9l9.37,6.67c-2.88,3.97-6.4,6.85-10.55,8.65-4.15,1.8-8.56,2.7-13.25,2.7-4.93,0-9.45-.8-13.57-2.39-4.12-1.59-7.66-3.84-10.64-6.76-2.97-2.91-5.3-6.41-6.99-10.5-1.68-4.09-2.52-8.62-2.52-13.61s.84-9.75,2.52-13.93c1.68-4.18,4.01-7.74,6.99-10.68,2.97-2.94,6.52-5.21,10.64-6.81,4.12-1.59,8.64-2.39,13.57-2.39,4.33,0,8.34.77,12.03,2.3,3.7,1.53,7.13,4.13,10.32,7.8l-8.83,6.49Z"/><path class="cls-1" d="m537.5,54.16c0,3.85-.66,7.32-1.98,10.41-1.32,3.1-3.13,5.72-5.41,7.89-2.28,2.16-4.99,3.83-8.11,5-3.13,1.17-6.52,1.76-10.19,1.76s-7.06-.59-10.19-1.76c-3.13-1.17-5.84-2.84-8.16-5-2.31-2.16-4.12-4.79-5.41-7.89-1.29-3.09-1.94-6.56-1.94-10.41V13.78h11.36v40.02c0,1.56.24,3.2.72,4.91.48,1.71,1.28,3.29,2.39,4.73,1.11,1.44,2.58,2.63,4.42,3.56,1.83.93,4.1,1.4,6.81,1.4s4.97-.47,6.81-1.4c1.83-.93,3.3-2.12,4.42-3.56,1.11-1.44,1.91-3.02,2.39-4.73.48-1.71.72-3.35.72-4.91V13.78h11.36v40.38Z"/><path class="cls-1" d="m582.33,27.48c-1.2-1.74-2.81-3.02-4.82-3.83-2.01-.81-4.13-1.22-6.35-1.22-1.32,0-2.6.15-3.83.45-1.23.3-2.34.78-3.33,1.44-.99.66-1.79,1.52-2.39,2.57-.6,1.05-.9,2.3-.9,3.74,0,2.16.75,3.82,2.25,4.96,1.5,1.14,3.36,2.13,5.59,2.97,2.22.84,4.66,1.65,7.3,2.43,2.64.78,5.08,1.86,7.3,3.24,2.22,1.38,4.09,3.22,5.59,5.5,1.5,2.28,2.25,5.32,2.25,9.1,0,3.43-.63,6.42-1.89,8.97-1.26,2.55-2.96,4.67-5.09,6.35-2.13,1.68-4.61,2.94-7.44,3.79-2.83.84-5.8,1.26-8.92,1.26-3.97,0-7.78-.66-11.45-1.98-3.67-1.32-6.82-3.55-9.46-6.67l8.56-8.29c1.38,2.1,3.2,3.74,5.45,4.91,2.25,1.17,4.64,1.76,7.17,1.76,1.32,0,2.64-.18,3.97-.54,1.32-.36,2.52-.9,3.61-1.62,1.08-.72,1.95-1.64,2.61-2.75.66-1.11.99-2.39.99-3.83,0-2.34-.75-4.15-2.25-5.41-1.5-1.26-3.37-2.33-5.59-3.2-2.22-.87-4.66-1.7-7.3-2.48-2.64-.78-5.08-1.85-7.3-3.2-2.22-1.35-4.09-3.15-5.59-5.41-1.5-2.25-2.25-5.27-2.25-9.06,0-3.3.68-6.16,2.03-8.56,1.35-2.4,3.12-4.4,5.32-5.99,2.19-1.59,4.7-2.78,7.53-3.56,2.82-.78,5.71-1.17,8.65-1.17,3.36,0,6.63.51,9.78,1.53,3.15,1.02,5.99,2.7,8.52,5.05l-8.29,8.74Z"/><path class="cls-1" d="m598.88,45.96c0-5.11.84-9.75,2.52-13.93,1.68-4.18,4.01-7.74,6.99-10.68,2.97-2.94,6.52-5.21,10.64-6.81,4.12-1.59,8.64-2.39,13.57-2.39,4.99-.06,9.55.68,13.7,2.21,4.15,1.53,7.72,3.77,10.73,6.71,3,2.95,5.35,6.49,7.03,10.64,1.68,4.15,2.52,8.77,2.52,13.88s-.84,9.52-2.52,13.61c-1.68,4.09-4.03,7.6-7.03,10.55-3.01,2.95-6.58,5.24-10.73,6.9-4.15,1.65-8.71,2.51-13.7,2.57-4.93,0-9.45-.8-13.57-2.39-4.12-1.59-7.66-3.84-10.64-6.76-2.97-2.91-5.3-6.41-6.99-10.5-1.68-4.09-2.52-8.62-2.52-13.61Zm11.9-.72c0,3.43.53,6.58,1.58,9.46,1.05,2.88,2.54,5.38,4.46,7.48,1.92,2.1,4.22,3.76,6.9,4.96,2.67,1.2,5.66,1.8,8.97,1.8s6.31-.6,9.01-1.8c2.7-1.2,5.02-2.85,6.94-4.96,1.92-2.1,3.41-4.6,4.46-7.48,1.05-2.88,1.58-6.04,1.58-9.46,0-3.18-.53-6.16-1.58-8.92-1.05-2.76-2.54-5.18-4.46-7.26-1.92-2.07-4.24-3.7-6.94-4.87-2.7-1.17-5.71-1.76-9.01-1.76s-6.3.59-8.97,1.76c-2.67,1.17-4.97,2.79-6.9,4.87-1.92,2.07-3.41,4.49-4.46,7.26-1.05,2.76-1.58,5.74-1.58,8.92Z"/><path class="cls-1" d="m708.58,13.78h41.19v10.28h-29.84v16.77h28.12v10.28h-28.12v26.5h-11.36V13.78Z"/><path class="cls-1" d="m759.99,13.78h11.36v63.82h-11.36V13.78Z"/><path class="cls-1" d="m786.11,13.78h15.05l30.92,47.41h.18V13.78h11.36v63.82h-14.42l-31.55-48.94h-.18v48.94h-11.36V13.78Z"/><path class="cls-1" d="m879.2,13.78h9.83l27.49,63.82h-12.98l-5.95-14.6h-27.67l-5.77,14.6h-12.71l27.76-63.82Zm14.42,39.48l-9.83-25.96-10.01,25.96h19.83Z"/><path class="cls-1" d="m924.38,13.78h15.05l30.92,47.41h.18V13.78h11.36v63.82h-14.42l-31.55-48.94h-.18v48.94h-11.36V13.78Z"/><path class="cls-1" d="m1040.7,28.75c-2.34-2.52-4.61-4.21-6.81-5.05-2.19-.84-4.4-1.26-6.63-1.26-3.31,0-6.3.59-8.97,1.76-2.67,1.17-4.97,2.79-6.9,4.87-1.92,2.07-3.41,4.49-4.46,7.26-1.05,2.76-1.58,5.74-1.58,8.92,0,3.43.53,6.58,1.58,9.46,1.05,2.88,2.54,5.38,4.46,7.48,1.92,2.1,4.22,3.76,6.9,4.96,2.67,1.2,5.66,1.8,8.97,1.8,2.58,0,5.09-.62,7.53-1.85,2.43-1.23,4.7-3.2,6.81-5.9l9.37,6.67c-2.88,3.97-6.4,6.85-10.55,8.65-4.15,1.8-8.56,2.7-13.25,2.7-4.93,0-9.45-.8-13.57-2.39-4.12-1.59-7.66-3.84-10.64-6.76-2.97-2.91-5.3-6.41-6.99-10.5-1.68-4.09-2.52-8.62-2.52-13.61s.84-9.75,2.52-13.93c1.68-4.18,4.01-7.74,6.99-10.68,2.97-2.94,6.52-5.21,10.64-6.81,4.12-1.59,8.64-2.39,13.57-2.39,4.33,0,8.34.77,12.03,2.3,3.7,1.53,7.13,4.13,10.32,7.8l-8.83,6.49Z"/><path class="cls-1" d="m1058.92,13.78h11.36v63.82h-11.36V13.78Z"/><path class="cls-1" d="m1105.74,13.78h9.83l27.49,63.82h-12.98l-5.95-14.6h-27.67l-5.77,14.6h-12.71l27.76-63.82Zm14.42,39.48l-9.83-25.96-10.01,25.96h19.83Z"/><path class="cls-1" d="m1150.92,13.78h11.36v53.54h27.13v10.28h-38.49V13.78Z"/><path class="cls-1" d="m457.02,112.5c-1.2-1.74-2.81-3.02-4.82-3.83-2.01-.81-4.13-1.22-6.35-1.22-1.32,0-2.6.15-3.83.45-1.23.3-2.34.78-3.33,1.44-.99.66-1.79,1.52-2.39,2.57-.6,1.05-.9,2.3-.9,3.74,0,2.16.75,3.82,2.25,4.96,1.5,1.14,3.36,2.13,5.59,2.97,2.22.84,4.66,1.65,7.3,2.43,2.64.78,5.08,1.86,7.3,3.24,2.22,1.38,4.09,3.22,5.59,5.5,1.5,2.28,2.25,5.32,2.25,9.1,0,3.43-.63,6.42-1.89,8.97-1.26,2.55-2.96,4.67-5.09,6.35-2.13,1.68-4.61,2.94-7.44,3.79-2.83.84-5.8,1.26-8.92,1.26-3.97,0-7.78-.66-11.45-1.98-3.67-1.32-6.82-3.55-9.46-6.67l8.56-8.29c1.38,2.1,3.2,3.74,5.45,4.91,2.25,1.17,4.64,1.76,7.17,1.76,1.32,0,2.64-.18,3.97-.54,1.32-.36,2.52-.9,3.61-1.62,1.08-.72,1.95-1.64,2.61-2.75.66-1.11.99-2.39.99-3.83,0-2.34-.75-4.15-2.25-5.41-1.5-1.26-3.37-2.33-5.59-3.2-2.22-.87-4.66-1.7-7.3-2.48-2.64-.78-5.08-1.85-7.3-3.2-2.22-1.35-4.09-3.15-5.59-5.41-1.5-2.25-2.25-5.27-2.25-9.06,0-3.3.68-6.16,2.03-8.56,1.35-2.4,3.12-4.4,5.32-5.99,2.19-1.59,4.7-2.78,7.53-3.56,2.82-.78,5.71-1.17,8.65-1.17,3.36,0,6.63.51,9.78,1.53,3.15,1.02,5.99,2.7,8.52,5.05l-8.29,8.74Z"/><path class="cls-1" d="m473.57,130.98c0-5.11.84-9.75,2.52-13.93,1.68-4.18,4.01-7.74,6.99-10.68,2.97-2.94,6.52-5.21,10.64-6.81,4.12-1.59,8.64-2.39,13.57-2.39,4.99-.06,9.55.68,13.7,2.21,4.15,1.53,7.72,3.77,10.73,6.71,3,2.95,5.35,6.49,7.03,10.64,1.68,4.15,2.52,8.77,2.52,13.88s-.84,9.52-2.52,13.61c-1.68,4.09-4.03,7.6-7.03,10.55-3.01,2.95-6.58,5.24-10.73,6.9-4.15,1.65-8.71,2.51-13.7,2.57-4.93,0-9.45-.8-13.57-2.39-4.12-1.59-7.66-3.84-10.64-6.76-2.97-2.91-5.3-6.41-6.99-10.5-1.68-4.09-2.52-8.62-2.52-13.61Zm11.9-.72c0,3.43.53,6.58,1.58,9.46,1.05,2.88,2.54,5.38,4.46,7.48,1.92,2.1,4.22,3.76,6.9,4.96,2.67,1.2,5.66,1.8,8.97,1.8s6.31-.6,9.01-1.8c2.7-1.2,5.02-2.85,6.94-4.96,1.92-2.1,3.41-4.6,4.46-7.48,1.05-2.88,1.58-6.04,1.58-9.46,0-3.18-.53-6.16-1.58-8.92-1.05-2.76-2.54-5.18-4.46-7.26-1.92-2.07-4.24-3.7-6.94-4.87-2.7-1.17-5.71-1.76-9.01-1.76s-6.3.59-8.97,1.76c-2.67,1.17-4.97,2.79-6.9,4.87-1.92,2.07-3.41,4.49-4.46,7.26-1.05,2.76-1.58,5.74-1.58,8.92Z"/><path class="cls-1" d="m552.7,98.8h22.17c3.06,0,6.02.29,8.88.86,2.85.57,5.39,1.55,7.62,2.93,2.22,1.38,4,3.24,5.32,5.59,1.32,2.34,1.98,5.32,1.98,8.92,0,4.63-1.28,8.5-3.83,11.63-2.55,3.13-6.21,5.02-10.95,5.68l16.95,28.21h-13.7l-14.78-27.04h-8.29v27.04h-11.36v-63.82Zm20.19,27.04c1.62,0,3.25-.07,4.87-.23,1.62-.15,3.11-.51,4.46-1.08,1.35-.57,2.45-1.44,3.29-2.61.84-1.17,1.26-2.81,1.26-4.91,0-1.86-.39-3.36-1.17-4.51-.78-1.14-1.8-2-3.06-2.57-1.26-.57-2.66-.95-4.19-1.13-1.53-.18-3.02-.27-4.46-.27h-9.83v17.31h8.83Z"/><path class="cls-1" d="m610.42,98.8h22.17c3.06,0,6.02.29,8.88.86,2.85.57,5.39,1.55,7.62,2.93,2.22,1.38,4,3.24,5.32,5.59,1.32,2.34,1.98,5.32,1.98,8.92,0,4.63-1.28,8.5-3.83,11.63-2.55,3.13-6.21,5.02-10.95,5.68l16.95,28.21h-13.7l-14.78-27.04h-8.29v27.04h-11.36v-63.82Zm20.19,27.04c1.62,0,3.25-.07,4.87-.23,1.62-.15,3.11-.51,4.46-1.08,1.35-.57,2.45-1.44,3.29-2.61.84-1.17,1.26-2.81,1.26-4.91,0-1.86-.39-3.36-1.17-4.51-.78-1.14-1.8-2-3.06-2.57-1.26-.57-2.66-.95-4.19-1.13-1.53-.18-3.02-.27-4.46-.27h-9.83v17.31h8.83Z"/><path class="cls-1" d="m668.14,98.8h42.27v10.28h-30.92v15.68h29.29v10.28h-29.29v17.31h32.54v10.28h-43.9v-63.82Z"/><path class="cls-1" d="m724.02,98.8h15.05l30.92,47.41h.18v-47.41h11.36v63.82h-14.42l-31.55-48.94h-.18v48.94h-11.36v-63.82Z"/><path class="cls-1" d="m809.19,109.07h-19.56v-10.28h50.48v10.28h-19.56v53.54h-11.36v-53.54Z"/><path class="cls-1" d="m843.35,130.98c0-5.11.84-9.75,2.52-13.93,1.68-4.18,4.01-7.74,6.99-10.68,2.97-2.94,6.52-5.21,10.64-6.81,4.12-1.59,8.64-2.39,13.57-2.39,4.99-.06,9.55.68,13.7,2.21,4.15,1.53,7.72,3.77,10.73,6.71,3,2.95,5.35,6.49,7.03,10.64,1.68,4.15,2.52,8.77,2.52,13.88s-.84,9.52-2.52,13.61c-1.68,4.09-4.03,7.6-7.03,10.55-3.01,2.95-6.58,5.24-10.73,6.9-4.15,1.65-8.71,2.51-13.7,2.57-4.93,0-9.45-.8-13.57-2.39-4.12-1.59-7.66-3.84-10.64-6.76-2.97-2.91-5.3-6.41-6.99-10.5-1.68-4.09-2.52-8.62-2.52-13.61Zm11.9-.72c0,3.43.53,6.58,1.58,9.46,1.05,2.88,2.54,5.38,4.46,7.48,1.92,2.1,4.22,3.76,6.9,4.96,2.67,1.2,5.66,1.8,8.97,1.8s6.31-.6,9.01-1.8c2.7-1.2,5.02-2.85,6.94-4.96,1.92-2.1,3.41-4.6,4.46-7.48,1.05-2.88,1.58-6.04,1.58-9.46,0-3.18-.53-6.16-1.58-8.92-1.05-2.76-2.54-5.18-4.46-7.26-1.92-2.07-4.24-3.7-6.94-4.87-2.7-1.17-5.71-1.76-9.01-1.76s-6.3.59-8.97,1.76c-2.67,1.17-4.97,2.79-6.9,4.87-1.92,2.07-3.41,4.49-4.46,7.26-1.05,2.76-1.58,5.74-1.58,8.92Z"/><path class="cls-1" d="m953.05,98.8h21.45c3.06,0,6.02.3,8.88.9,2.85.6,5.36,1.61,7.53,3.02,2.16,1.41,3.89,3.31,5.18,5.68,1.29,2.37,1.94,5.33,1.94,8.88,0,4.03-.69,7.27-2.07,9.73-1.38,2.46-3.24,4.37-5.59,5.72-2.34,1.35-5.06,2.27-8.16,2.75-3.1.48-6.33.72-9.69.72h-8.11v26.41h-11.36v-63.82Zm18.21,27.67c1.62,0,3.3-.06,5.05-.18,1.74-.12,3.35-.48,4.82-1.08,1.47-.6,2.67-1.5,3.61-2.7.93-1.2,1.4-2.88,1.4-5.05,0-1.98-.42-3.56-1.26-4.73-.84-1.17-1.92-2.07-3.25-2.7-1.32-.63-2.79-1.04-4.42-1.22-1.62-.18-3.19-.27-4.69-.27h-8.11v17.94h6.85Z"/><path class="cls-1" d="m1022.73,98.8h9.83l27.49,63.82h-12.98l-5.95-14.6h-27.67l-5.77,14.6h-12.71l27.76-63.82Zm14.42,39.48l-9.83-25.96-10.01,25.96h19.83Z"/><path class="cls-1" d="m1108.4,113.76c-2.34-2.52-4.61-4.21-6.81-5.05-2.19-.84-4.4-1.26-6.63-1.26-3.31,0-6.3.59-8.97,1.76-2.67,1.17-4.97,2.79-6.9,4.87-1.92,2.07-3.41,4.49-4.46,7.26-1.05,2.76-1.58,5.74-1.58,8.92,0,3.43.53,6.58,1.58,9.46,1.05,2.88,2.54,5.38,4.46,7.48,1.92,2.1,4.22,3.76,6.9,4.96,2.67,1.2,5.66,1.8,8.97,1.8,2.58,0,5.09-.62,7.53-1.85,2.43-1.23,4.7-3.2,6.81-5.9l9.37,6.67c-2.88,3.97-6.4,6.85-10.55,8.65-4.15,1.8-8.56,2.7-13.25,2.7-4.93,0-9.45-.8-13.57-2.39-4.12-1.59-7.66-3.84-10.64-6.76-2.97-2.91-5.3-6.41-6.99-10.5-1.68-4.09-2.52-8.62-2.52-13.61s.84-9.75,2.52-13.93c1.68-4.18,4.01-7.74,6.99-10.68,2.97-2.94,6.52-5.21,10.64-6.81,4.12-1.59,8.64-2.39,13.57-2.39,4.33,0,8.34.77,12.03,2.3,3.7,1.53,7.13,4.13,10.32,7.8l-8.83,6.49Z"/><path class="cls-1" d="m1126.62,98.8h11.36v63.82h-11.36v-63.82Z"/><path class="cls-1" d="m1152.73,98.8h41.19v10.28h-29.84v16.77h28.12v10.28h-28.12v26.5h-11.36v-63.82Z"/><path class="cls-1" d="m1204.15,98.8h11.36v63.82h-11.36v-63.82Z"/><path class="cls-1" d="m1274.15,113.76c-2.34-2.52-4.61-4.21-6.81-5.05-2.19-.84-4.4-1.26-6.63-1.26-3.31,0-6.3.59-8.97,1.76-2.67,1.17-4.97,2.79-6.9,4.87-1.92,2.07-3.41,4.49-4.46,7.26-1.05,2.76-1.58,5.74-1.58,8.92,0,3.43.53,6.58,1.58,9.46,1.05,2.88,2.54,5.38,4.46,7.48,1.92,2.1,4.22,3.76,6.9,4.96,2.67,1.2,5.66,1.8,8.97,1.8,2.58,0,5.09-.62,7.53-1.85,2.43-1.23,4.7-3.2,6.81-5.9l9.37,6.67c-2.88,3.97-6.4,6.85-10.55,8.65-4.15,1.8-8.56,2.7-13.25,2.7-4.93,0-9.45-.8-13.57-2.39-4.12-1.59-7.66-3.84-10.64-6.76-2.97-2.91-5.3-6.41-6.99-10.5-1.68-4.09-2.52-8.62-2.52-13.61s.84-9.75,2.52-13.93c1.68-4.18,4.01-7.74,6.99-10.68,2.97-2.94,6.52-5.21,10.64-6.81,4.12-1.59,8.64-2.39,13.57-2.39,4.33,0,8.34.77,12.03,2.3,3.7,1.53,7.13,4.13,10.32,7.8l-8.83,6.49Z"/><polygon class="cls-2" points="197.84 208.02 242.9 162.96 197.84 117.91 197.84 117.91 197.84 117.91 152.79 162.96 197.84 208.02"/><polygon class="cls-3" points="253.52 173.58 248.78 168.84 203.72 213.89 203.72 213.89 293.83 213.89 253.52 173.58"/><polygon class="cls-3" points="350.64 168.84 305.58 213.89 305.58 213.89 395.69 213.89 395.69 213.89 350.64 168.84"/><polygon class="cls-2" points="146.91 168.84 101.86 213.89 101.86 213.89 191.97 213.89 191.97 213.89 146.91 168.84"/><rect class="cls-1" x="165.99" y="29.25" width="63.72" height="63.72" transform="translate(14.74 157.79) rotate(-45)"/><polygon class="cls-1" points="191.97 112.03 169.44 89.51 146.91 66.98 101.86 112.03 146.91 157.09 191.97 112.03"/><rect class="cls-1" x="64.13" y="131.11" width="63.72" height="63.72" transform="translate(-87.12 115.6) rotate(-45)"/><polygon class="cls-1" points="45.05 168.84 0 213.89 0 213.89 90.11 213.89 90.11 213.89 45.05 168.84"/><rect class="cls-2" x="216.92" y="80.17" width="63.72" height="63.72" transform="translate(-6.35 208.73) rotate(-45)"/><polygon class="cls-3" points="277.18 140.44 254.65 162.96 299.71 208.02 327 180.72 344.76 162.96 299.71 117.91 277.18 140.44"/><rect class="cls-1" x="1170.21" y="42.98" width="94.8" height="2.47" transform="translate(707.75 1150.82) rotate(-67.34)"/><path class="cls-1" d="m442.92,178.87h4.34l15.13,35.35h-5.59l-3.54-8.74h-16.82l-3.49,8.74h-5.59l15.58-35.35Zm8.59,22.42l-6.59-16.23h-.1l-6.69,16.23h13.38Z"/><path class="cls-1" d="m477.23,194.45h-6.44v10.73c0,.67.02,1.32.05,1.97.03.65.16,1.23.37,1.75.22.52.55.93,1,1.25s1.11.47,1.97.47c.53,0,1.08-.05,1.65-.15.57-.1,1.08-.28,1.55-.55v4.09c-.53.3-1.22.51-2.07.62-.85.12-1.51.17-1.97.17-1.73,0-3.07-.24-4.02-.72-.95-.48-1.65-1.11-2.1-1.87-.45-.76-.72-1.62-.8-2.57-.08-.95-.13-1.9-.13-2.87v-12.33h-5.19v-3.89h5.19v-6.64h4.49v6.64h6.44v3.89Z"/><path class="cls-1" d="m481.64,190.55h4.49v3.65h.1c.3-.63.7-1.21,1.2-1.72s1.06-.96,1.67-1.32,1.29-.66,2.02-.87c.73-.22,1.46-.33,2.2-.33s1.4.1,2,.3l-.2,4.84c-.37-.1-.73-.18-1.1-.25-.37-.07-.73-.1-1.1-.1-2.2,0-3.88.62-5.04,1.85-1.17,1.23-1.75,3.14-1.75,5.74v11.88h-4.49v-23.66Z"/><path class="cls-1" d="m498.29,182.06c0-.9.32-1.67.97-2.32.65-.65,1.42-.97,2.32-.97s1.67.32,2.32.97.97,1.42.97,2.32-.33,1.67-.97,2.32c-.65.65-1.42.97-2.32.97s-1.67-.33-2.32-.97c-.65-.65-.97-1.42-.97-2.32Zm1.05,8.49h4.49v23.66h-4.49v-23.66Z"/><path class="cls-1" d="m511.92,193.45c1.26-1.16,2.73-2.04,4.39-2.62,1.66-.58,3.33-.87,4.99-.87s3.22.22,4.47.65c1.25.43,2.27,1.02,3.07,1.75.8.73,1.39,1.57,1.77,2.52.38.95.57,1.94.57,2.97v12.08c0,.83.02,1.6.05,2.3.03.7.08,1.37.15,2h-3.99c-.1-1.2-.15-2.4-.15-3.59h-.1c-1,1.53-2.18,2.61-3.54,3.25-1.37.63-2.95.95-4.74.95-1.1,0-2.15-.15-3.15-.45-1-.3-1.87-.75-2.62-1.35-.75-.6-1.34-1.34-1.77-2.22-.43-.88-.65-1.9-.65-3.07,0-1.53.34-2.81,1.02-3.84.68-1.03,1.61-1.87,2.8-2.52,1.18-.65,2.56-1.11,4.14-1.4s3.27-.42,5.07-.42h3.29v-1c0-.6-.12-1.2-.35-1.8-.23-.6-.58-1.14-1.05-1.62-.47-.48-1.05-.86-1.75-1.15-.7-.28-1.53-.42-2.5-.42-.87,0-1.62.08-2.27.25-.65.17-1.24.37-1.77.62s-1.02.54-1.45.87c-.43.33-.85.65-1.25.95l-2.7-2.8Zm12.68,9.39c-1.07,0-2.16.06-3.27.17-1.12.12-2.13.34-3.05.67-.92.33-1.66.8-2.25,1.4-.58.6-.87,1.37-.87,2.3,0,1.37.46,2.35,1.37,2.95.91.6,2.15.9,3.72.9,1.23,0,2.28-.21,3.15-.62.87-.42,1.56-.96,2.1-1.62.53-.67.92-1.41,1.15-2.22.23-.81.35-1.62.35-2.42v-1.5h-2.4Z"/><path class="cls-1" d="m577.36,186.51c-1-1.3-2.26-2.3-3.79-3-1.53-.7-3.11-1.05-4.74-1.05-2,0-3.8.37-5.42,1.12-1.61.75-3,1.77-4.14,3.07-1.15,1.3-2.04,2.82-2.67,4.57-.63,1.75-.95,3.62-.95,5.62,0,1.86.3,3.63.9,5.29.6,1.66,1.46,3.13,2.6,4.39,1.13,1.27,2.51,2.26,4.14,3,1.63.73,3.48,1.1,5.54,1.1s3.81-.42,5.34-1.25c1.53-.83,2.83-2,3.89-3.49l4.04,3.04c-.27.37-.73.89-1.4,1.57-.67.68-1.55,1.37-2.65,2.05-1.1.68-2.42,1.28-3.97,1.8-1.55.52-3.34.77-5.37.77-2.8,0-5.32-.53-7.56-1.6-2.25-1.07-4.16-2.46-5.74-4.19-1.58-1.73-2.79-3.69-3.62-5.87-.83-2.18-1.25-4.38-1.25-6.61,0-2.73.45-5.25,1.35-7.56.9-2.31,2.15-4.31,3.77-5.99,1.61-1.68,3.55-2.99,5.82-3.92,2.26-.93,4.76-1.4,7.49-1.4,2.33,0,4.62.45,6.86,1.35,2.25.9,4.09,2.28,5.52,4.14l-3.99,3.05Z"/><path class="cls-1" d="m585.65,202.38c0-1.73.32-3.35.97-4.84s1.54-2.81,2.67-3.94,2.46-2.02,3.99-2.67c1.53-.65,3.18-.97,4.94-.97s3.41.33,4.94.97c1.53.65,2.86,1.54,3.99,2.67,1.13,1.13,2.02,2.45,2.67,3.94.65,1.5.97,3.11.97,4.84s-.33,3.35-.97,4.87c-.65,1.51-1.54,2.83-2.67,3.94-1.13,1.12-2.46,2-3.99,2.65s-3.18.97-4.94.97-3.41-.32-4.94-.97-2.86-1.53-3.99-2.65c-1.13-1.11-2.02-2.43-2.67-3.94-.65-1.51-.97-3.14-.97-4.87Zm4.79,0c0,1.2.18,2.31.55,3.32.37,1.02.88,1.88,1.55,2.6.66.72,1.48,1.28,2.45,1.7.97.42,2.05.62,3.25.62s2.28-.21,3.24-.62c.97-.42,1.78-.98,2.45-1.7.67-.72,1.18-1.58,1.55-2.6.37-1.01.55-2.12.55-3.32s-.18-2.3-.55-3.32c-.37-1.01-.88-1.88-1.55-2.6-.67-.72-1.48-1.28-2.45-1.7-.97-.42-2.05-.62-3.24-.62s-2.28.21-3.25.62c-.97.42-1.78.98-2.45,1.7-.67.72-1.18,1.58-1.55,2.6-.37,1.02-.55,2.12-.55,3.32Z"/><path class="cls-1" d="m615.79,190.55h4.19v3.69h.1c.1-.33.36-.75.77-1.25.42-.5.95-.97,1.6-1.42s1.41-.83,2.3-1.15c.88-.32,1.86-.47,2.92-.47,1.76,0,3.24.37,4.44,1.1,1.2.73,2.18,1.83,2.95,3.29.77-1.46,1.85-2.56,3.24-3.29,1.4-.73,2.81-1.1,4.24-1.1,1.83,0,3.33.3,4.49.9s2.08,1.39,2.75,2.37c.66.98,1.12,2.1,1.37,3.35s.37,2.54.37,3.87v13.78h-4.49v-13.18c0-.9-.06-1.76-.17-2.6-.12-.83-.36-1.56-.72-2.2s-.88-1.14-1.55-1.52c-.67-.38-1.55-.57-2.65-.57-2.16,0-3.71.67-4.64,2-.93,1.33-1.4,3.05-1.4,5.14v12.93h-4.49v-12.38c0-1.13-.06-2.16-.17-3.1-.12-.93-.35-1.74-.7-2.42-.35-.68-.85-1.21-1.5-1.6-.65-.38-1.52-.57-2.62-.57-.8,0-1.57.16-2.32.47-.75.32-1.41.79-1.97,1.42-.57.63-1.02,1.44-1.35,2.42-.33.98-.5,2.14-.5,3.47v12.28h-4.49v-23.66Z"/><path class="cls-1" d="m659.72,190.55h4.49v3.39h.1c.87-1.26,2.05-2.25,3.57-2.95,1.51-.7,3.07-1.05,4.67-1.05,1.83,0,3.49.32,4.97.95,1.48.63,2.75,1.51,3.79,2.65,1.05,1.13,1.86,2.45,2.42,3.97.57,1.52.85,3.14.85,4.87s-.28,3.4-.85,4.92c-.57,1.51-1.37,2.83-2.42,3.94-1.05,1.12-2.31,1.99-3.79,2.62-1.48.63-3.14.95-4.97.95-1.7,0-3.29-.36-4.79-1.07-1.5-.72-2.65-1.69-3.45-2.92h-.1v17.47h-4.49v-37.74Zm12.28,3.59c-1.2,0-2.28.21-3.24.62-.97.42-1.78.98-2.45,1.7-.67.72-1.18,1.58-1.55,2.6-.37,1.02-.55,2.12-.55,3.32s.18,2.31.55,3.32c.37,1.02.88,1.88,1.55,2.6.67.72,1.48,1.28,2.45,1.7.96.42,2.05.62,3.24.62s2.28-.21,3.25-.62c.96-.42,1.78-.98,2.45-1.7.67-.72,1.18-1.58,1.55-2.6.37-1.01.55-2.12.55-3.32s-.18-2.3-.55-3.32c-.37-1.01-.88-1.88-1.55-2.6-.67-.72-1.48-1.28-2.45-1.7-.97-.42-2.05-.62-3.25-.62Z"/><path class="cls-1" d="m689.36,193.45c1.26-1.16,2.73-2.04,4.39-2.62,1.66-.58,3.33-.87,4.99-.87s3.22.22,4.47.65c1.25.43,2.27,1.02,3.07,1.75.8.73,1.39,1.57,1.77,2.52.38.95.57,1.94.57,2.97v12.08c0,.83.02,1.6.05,2.3.03.7.08,1.37.15,2h-3.99c-.1-1.2-.15-2.4-.15-3.59h-.1c-1,1.53-2.18,2.61-3.54,3.25-1.37.63-2.95.95-4.74.95-1.1,0-2.15-.15-3.15-.45-1-.3-1.87-.75-2.62-1.35-.75-.6-1.34-1.34-1.77-2.22-.43-.88-.65-1.9-.65-3.07,0-1.53.34-2.81,1.02-3.84.68-1.03,1.61-1.87,2.8-2.52,1.18-.65,2.56-1.11,4.14-1.4s3.27-.42,5.07-.42h3.29v-1c0-.6-.12-1.2-.35-1.8-.23-.6-.58-1.14-1.05-1.62-.47-.48-1.05-.86-1.75-1.15-.7-.28-1.53-.42-2.5-.42-.87,0-1.62.08-2.27.25-.65.17-1.24.37-1.77.62s-1.02.54-1.45.87c-.43.33-.85.65-1.25.95l-2.7-2.8Zm12.68,9.39c-1.07,0-2.16.06-3.27.17-1.12.12-2.13.34-3.05.67-.92.33-1.66.8-2.25,1.4-.58.6-.87,1.37-.87,2.3,0,1.37.46,2.35,1.37,2.95.91.6,2.15.9,3.72.9,1.23,0,2.28-.21,3.15-.62.87-.42,1.56-.96,2.1-1.62.53-.67.92-1.41,1.15-2.22.23-.81.35-1.62.35-2.42v-1.5h-2.4Z"/><path class="cls-1" d="m716.66,190.55h4.49v3.65h.1c.57-1.27,1.55-2.29,2.95-3.07,1.4-.78,3.01-1.17,4.84-1.17,1.13,0,2.22.17,3.27.52,1.05.35,1.96.89,2.75,1.62.78.73,1.4,1.67,1.87,2.82.47,1.15.7,2.51.7,4.07v15.23h-4.49v-13.98c0-1.1-.15-2.04-.45-2.82-.3-.78-.7-1.41-1.2-1.9-.5-.48-1.07-.83-1.72-1.05-.65-.22-1.32-.32-2.02-.32-.93,0-1.8.15-2.6.45s-1.5.77-2.1,1.42c-.6.65-1.07,1.47-1.4,2.47-.33,1-.5,2.18-.5,3.55v12.18h-4.49v-23.66Z"/><path class="cls-1" d="m743.12,182.06c0-.9.32-1.67.97-2.32.65-.65,1.42-.97,2.32-.97s1.67.32,2.32.97.97,1.42.97,2.32-.33,1.67-.97,2.32c-.65.65-1.42.97-2.32.97s-1.67-.33-2.32-.97c-.65-.65-.97-1.42-.97-2.32Zm1.05,8.49h4.49v23.66h-4.49v-23.66Z"/><path class="cls-1" d="m758.43,204.03c0,1.03.22,1.97.67,2.82.45.85,1.04,1.57,1.77,2.17.73.6,1.58,1.07,2.55,1.4.96.33,1.96.5,3,.5,1.4,0,2.61-.32,3.64-.97,1.03-.65,1.98-1.51,2.85-2.57l3.39,2.6c-2.5,3.23-5.99,4.84-10.48,4.84-1.86,0-3.55-.32-5.07-.95-1.52-.63-2.8-1.51-3.84-2.62-1.05-1.11-1.86-2.43-2.42-3.94-.57-1.51-.85-3.15-.85-4.92s.31-3.4.92-4.92c.62-1.51,1.46-2.83,2.55-3.94,1.08-1.11,2.37-1.99,3.87-2.62s3.13-.95,4.89-.95c2.1,0,3.87.37,5.32,1.1s2.64,1.69,3.57,2.87c.93,1.18,1.6,2.51,2.02,3.99.42,1.48.62,2.99.62,4.52v1.6h-18.97Zm14.18-3.59c-.03-1-.19-1.91-.47-2.75-.28-.83-.71-1.56-1.27-2.17-.57-.62-1.27-1.1-2.12-1.45-.85-.35-1.84-.52-2.97-.52s-2.11.21-3.02.62c-.92.42-1.69.96-2.32,1.62s-1.12,1.41-1.47,2.22c-.35.82-.52,1.62-.52,2.42h14.18Z"/><path class="cls-1" d="m794.67,196.49c-.53-.67-1.19-1.22-1.97-1.67-.78-.45-1.74-.67-2.87-.67-1.07,0-1.99.23-2.77.67-.78.45-1.17,1.11-1.17,1.97,0,.7.23,1.27.67,1.7.45.43.98.78,1.6,1.05.62.27,1.27.47,1.97.6.7.13,1.3.25,1.8.35.96.23,1.87.52,2.72.85.85.33,1.58.77,2.2,1.3.62.53,1.1,1.18,1.45,1.95.35.77.52,1.7.52,2.8,0,1.33-.28,2.47-.85,3.42-.57.95-1.3,1.72-2.2,2.32-.9.6-1.92,1.03-3.07,1.3-1.15.27-2.31.4-3.47.4-1.96,0-3.69-.3-5.17-.9-1.48-.6-2.8-1.7-3.97-3.29l3.39-2.8c.73.73,1.55,1.38,2.45,1.95.9.57,2,.85,3.29.85.57,0,1.14-.06,1.72-.17.58-.12,1.1-.3,1.55-.55.45-.25.81-.57,1.1-.95.28-.38.42-.82.42-1.32,0-.67-.21-1.21-.62-1.65-.42-.43-.92-.77-1.5-1.02-.58-.25-1.2-.45-1.85-.6-.65-.15-1.22-.27-1.72-.37-.97-.23-1.88-.5-2.75-.8-.87-.3-1.63-.7-2.3-1.2-.67-.5-1.2-1.13-1.6-1.9-.4-.76-.6-1.71-.6-2.85,0-1.23.26-2.3.77-3.22s1.2-1.67,2.05-2.27c.85-.6,1.81-1.05,2.9-1.35,1.08-.3,2.17-.45,3.27-.45,1.6,0,3.13.3,4.59.9,1.46.6,2.63,1.6,3.49,3l-3.49,2.65Z"/><polygon class="cls-4" points="1311.29 127.36 1311.35 127.36 1317.17 111.95 1321.51 111.93 1321.6 131.96 1318.81 131.97 1318.74 115.22 1318.68 115.22 1312.13 132 1310.35 132.01 1303.68 115.29 1303.63 115.29 1303.7 132.04 1300.99 132.05 1300.91 112.02 1305.25 112 1311.29 127.36"/><path class="cls-4" d="m1336.05,124c-.02-.53-.11-1.02-.27-1.48-.16-.46-.4-.86-.71-1.2-.31-.34-.7-.6-1.16-.8-.46-.2-1-.29-1.62-.29-.56,0-1.09.1-1.59.3-.5.2-.93.47-1.29.81-.37.34-.67.74-.9,1.21-.23.46-.37.96-.4,1.49l7.95-.04Zm2.71,1.06c0,.15,0,.3,0,.45s0,.3-.03.45l-10.63.05c.02.56.15,1.09.39,1.58.24.5.55.93.95,1.29.4.36.85.65,1.37.85.52.2,1.07.31,1.65.3.9,0,1.68-.2,2.34-.6.66-.4,1.17-.88,1.54-1.45l1.87,1.49c-.71.95-1.55,1.66-2.51,2.11-.97.45-2.04.68-3.23.69-1.01,0-1.96-.16-2.82-.5-.87-.33-1.61-.81-2.23-1.42-.62-.61-1.12-1.35-1.48-2.21-.36-.87-.55-1.83-.55-2.88,0-1.04.17-2,.51-2.87.34-.88.83-1.63,1.44-2.25.62-.62,1.35-1.11,2.2-1.47.85-.35,1.76-.53,2.74-.54.98,0,1.87.15,2.67.47.8.32,1.48.78,2.04,1.38.56.6.99,1.33,1.29,2.19.31.86.46,1.82.47,2.9"/><path class="cls-4" d="m1346.62,118.82c.74-.5,1.62-.76,2.63-.76.9,0,1.71.2,2.44.61.73.41,1.3,1.1,1.71,2.06.45-.87,1.07-1.54,1.88-2,.81-.46,1.69-.7,2.65-.7.86,0,1.61.14,2.23.43.62.29,1.14.68,1.55,1.17.42.49.73,1.06.92,1.72.2.66.3,1.36.31,2.12l.04,8.32h-2.65s-.03-7.43-.03-7.43c0-.55-.05-1.07-.15-1.56-.1-.49-.26-.92-.49-1.3-.23-.38-.53-.68-.91-.9-.38-.22-.86-.33-1.44-.33-.6,0-1.12.13-1.55.39-.43.26-.78.59-1.05,1-.27.4-.47.86-.59,1.37-.12.51-.18,1.03-.18,1.56l.03,7.24h-2.65s-.04-7.97-.04-7.97c0-.53-.05-1.01-.15-1.44s-.26-.81-.48-1.12c-.23-.31-.52-.55-.88-.73-.36-.18-.8-.26-1.33-.26-.98,0-1.79.41-2.43,1.21-.64.8-.96,1.88-.96,3.21l.03,7.13h-2.65s-.04-10.51-.04-10.51c0-.36-.01-.82-.03-1.39-.02-.56-.05-1.06-.09-1.5h2.51c.04.33.07.71.09,1.13.02.42.03.78.03,1.06h.08c.33-.72.87-1.33,1.61-1.83"/><path class="cls-4" d="m1378.93,124.99c0-.62-.1-1.22-.29-1.8s-.47-1.1-.85-1.55c-.38-.45-.84-.8-1.4-1.07-.56-.26-1.2-.39-1.93-.39-.68,0-1.29.14-1.84.4-.55.26-1.03.62-1.42,1.08-.39.45-.7.97-.91,1.55-.21.59-.32,1.2-.32,1.84,0,.64.11,1.25.33,1.83.22.58.53,1.09.92,1.53.4.44.87.79,1.43,1.05.56.26,1.17.39,1.85.39.73,0,1.38-.14,1.93-.42.55-.28,1.02-.64,1.39-1.09.37-.45.65-.97.84-1.55.18-.58.27-1.19.27-1.81m-8.86,4.63v2.12s-2.56.01-2.56.01l-.09-21.39h2.65s.04,9.97.04,9.97h.09c.45-.66,1.07-1.22,1.88-1.69.8-.47,1.76-.7,2.87-.7.99,0,1.9.17,2.72.53.82.35,1.52.85,2.12,1.49.59.64,1.05,1.39,1.37,2.24.32.86.49,1.78.49,2.76,0,.98-.15,1.91-.47,2.78-.32.87-.76,1.62-1.34,2.27-.58.64-1.28,1.15-2.1,1.52-.82.37-1.75.56-2.78.56-.96,0-1.87-.2-2.73-.62-.86-.42-1.56-1.03-2.09-1.84h-.06Z"/><path class="cls-4" d="m1395.14,123.74c-.02-.53-.11-1.02-.27-1.48-.16-.46-.4-.86-.71-1.2-.31-.34-.7-.6-1.16-.8-.46-.2-1-.29-1.62-.29-.56,0-1.09.1-1.59.3-.5.2-.93.47-1.29.81-.37.34-.67.74-.9,1.21-.23.46-.37.96-.4,1.49l7.95-.04Zm2.71,1.06c0,.15,0,.3,0,.45s0,.3-.03.45l-10.63.05c.02.56.15,1.09.39,1.58.24.5.55.93.95,1.29.4.36.85.65,1.37.85.52.2,1.07.31,1.65.3.9,0,1.68-.2,2.34-.6.66-.4,1.17-.88,1.54-1.45l1.87,1.49c-.71.95-1.55,1.66-2.51,2.11-.97.45-2.04.68-3.23.69-1.01,0-1.96-.16-2.82-.5-.87-.33-1.61-.81-2.23-1.42-.62-.61-1.12-1.35-1.48-2.21-.36-.87-.54-1.83-.55-2.88,0-1.04.17-2,.51-2.87.34-.88.83-1.63,1.44-2.25s1.35-1.11,2.2-1.47c.84-.35,1.76-.53,2.74-.54.98,0,1.87.15,2.67.47.8.32,1.48.78,2.04,1.38.56.6.99,1.33,1.29,2.19.31.86.46,1.82.47,2.9"/><path class="cls-4" d="m1401.46,119.7c-.02-.57-.05-1.06-.09-1.5h2.51c.04.33.07.72.09,1.16.02.44.03.81.03,1.09h.08c.37-.79.92-1.43,1.64-1.92.72-.48,1.53-.73,2.43-.73.41,0,.76.04,1.04.11l-.1,2.46c-.38-.09-.78-.14-1.21-.14-.64,0-1.19.12-1.66.36-.47.24-.86.55-1.17.95-.31.4-.54.86-.69,1.37-.15.52-.22,1.06-.22,1.63l.03,7.04h-2.65s-.04-10.51-.04-10.51c0-.36-.02-.82-.03-1.39"/><polygon class="cls-4" points="1303.92 162.92 1301.13 162.93 1301.04 142.9 1313.5 142.85 1313.51 145.31 1303.84 145.35 1303.87 151.57 1312.92 151.54 1312.93 153.94 1303.88 153.98 1303.92 162.92"/><rect class="cls-4" x="1317.1" y="142.83" width="2.79" height="20.03" transform="translate(-.63 5.52) rotate(-.24)"/><polygon class="cls-4" points="1338.83 158.75 1338.88 158.75 1338.81 142.74 1341.61 142.73 1341.69 162.75 1338.17 162.77 1327.56 146.47 1327.5 146.47 1327.57 162.82 1324.78 162.83 1324.69 142.8 1328.33 142.78 1338.83 158.75"/><path class="cls-4" d="m1349.28,151.46h3.21c.66-.02,1.27-.08,1.83-.19.56-.11,1.06-.3,1.48-.56.42-.26.75-.59,1-.99.24-.41.36-.91.36-1.52,0-.6-.13-1.11-.37-1.51-.25-.4-.57-.73-.98-.97s-.88-.42-1.43-.52c-.54-.1-1.12-.15-1.72-.15l-3.41.02.03,6.39Zm.05,11.26h-2.79s-.09-20.02-.09-20.02l6.4-.03c.96,0,1.87.09,2.73.28.86.19,1.62.51,2.27.94.65.43,1.16,1,1.54,1.71.38.7.57,1.57.58,2.58,0,1.47-.44,2.66-1.34,3.57-.9.91-2.06,1.49-3.49,1.74l5.62,9.17-3.38.02-5.11-8.89h-2.99s.04,8.92.04,8.92Z"/><path class="cls-4" d="m1367.62,155.26l7.47-.03-3.76-9.38-3.71,9.41Zm-2.96,7.4h-3.1s8.57-20.05,8.57-20.05h2.54s8.66,19.98,8.66,19.98h-3.16s-2.05-4.9-2.05-4.9l-9.47.04-1.98,4.93Z"/><polygon class="cls-4" points="1383.41 163.5 1381.41 162.84 1389.97 141.55 1391.98 142.28 1383.41 163.5"/><path class="cls-4" d="m1404.45,146.16c-.4-.55-.93-.99-1.61-1.34-.68-.35-1.44-.52-2.29-.51-.45,0-.91.06-1.37.19-.46.12-.88.33-1.25.6-.37.27-.68.62-.91,1.02s-.35.89-.35,1.46c0,.55.11,1,.33,1.37.22.37.51.68.88.93.37.25.8.47,1.3.65.5.18,1.03.36,1.59.54.68.2,1.36.44,2.06.7.69.26,1.33.61,1.89,1.04.57.43,1.03.97,1.39,1.62.36.65.54,1.47.55,2.47,0,1.04-.18,1.94-.57,2.71-.38.76-.89,1.4-1.53,1.9-.64.5-1.37.88-2.21,1.13-.83.25-1.69.37-2.58.38-1.26,0-2.48-.23-3.65-.72-1.18-.48-2.15-1.2-2.93-2.16l2.16-1.85c.47.69,1.11,1.26,1.9,1.69.79.43,1.65.64,2.57.64.47,0,.94-.07,1.41-.2.47-.13.9-.34,1.28-.63.38-.29.7-.64.94-1.06.24-.43.36-.94.36-1.54,0-.6-.13-1.11-.39-1.51-.25-.4-.6-.75-1.03-1.03-.43-.28-.94-.52-1.51-.72-.57-.19-1.18-.39-1.82-.6-.64-.18-1.27-.41-1.89-.69-.62-.27-1.18-.62-1.67-1.04-.49-.42-.89-.94-1.19-1.56-.31-.62-.46-1.39-.46-2.32,0-1,.19-1.86.6-2.58s.92-1.31,1.57-1.79c.65-.47,1.38-.82,2.19-1.04.82-.22,1.64-.33,2.47-.34,1.16,0,2.26.2,3.27.61,1.02.41,1.84.96,2.46,1.66l-1.96,1.93Z"/><rect class="cls-4" x="1410.59" y="142.42" width="2.79" height="20.03" transform="translate(-.63 5.91) rotate(-.24)"/><path class="cls-4" d="m1421.02,151.23h2.96c.68-.02,1.3-.08,1.87-.2.57-.12,1.06-.32,1.48-.57.41-.26.73-.59.95-1.01.22-.42.33-.92.33-1.53,0-.6-.12-1.11-.36-1.51-.24-.4-.56-.73-.96-.98-.4-.25-.89-.43-1.45-.53-.56-.1-1.17-.15-1.83-.15h-3.02s.03,6.49.03,6.49Zm-2.83-8.84l6.09-.03c1.07,0,2.05.1,2.93.31.88.21,1.64.55,2.26.99.62.45,1.1,1.02,1.44,1.72.34.7.51,1.54.52,2.51,0,1-.18,1.86-.54,2.58-.36.72-.87,1.3-1.51,1.76-.65.46-1.42.79-2.31,1.02-.89.22-1.85.33-2.89.34h-3.16s.04,8.81.04,8.81h-2.79s-.09-20.02-.09-20.02Z"/><path class="cls-4" d="m1452.15,159.16c-.78,1.08-1.8,1.95-3.06,2.63-1.26.67-2.77,1.02-4.53,1.02-1.52,0-2.93-.25-4.22-.76-1.29-.51-2.4-1.23-3.34-2.16-.93-.93-1.67-2.04-2.2-3.33-.53-1.29-.8-2.71-.81-4.25,0-1.56.25-2.99.78-4.29.53-1.29,1.27-2.4,2.21-3.32.94-.92,2.06-1.64,3.36-2.15,1.29-.52,2.7-.78,4.23-.78.68,0,1.36.06,2.06.19.69.13,1.36.33,2,.59.64.26,1.22.58,1.75.97.53.38.98.83,1.36,1.34l-2.19,1.71c-.49-.68-1.18-1.23-2.08-1.67-.89-.44-1.86-.66-2.89-.65-1.17,0-2.21.22-3.14.65s-1.72,1.01-2.37,1.75c-.65.74-1.16,1.59-1.51,2.57-.35.97-.53,2-.52,3.1,0,1.13.18,2.19.54,3.17.35.98.85,1.83,1.5,2.55.65.72,1.44,1.29,2.37,1.7.93.41,1.97.61,3.12.61,1.13,0,2.15-.24,3.07-.69.92-.46,1.68-1.12,2.28-1.99l2.23,1.52Z"/></svg>